
<svg width="400" height="400" viewBox="0 0 400 400" fill="none" xmlns="http://www.w3.org/2000/svg">
  <rect width="400" height="400" rx="8" fill="#374151"/>
  <path d="M200 180C188.954 180 180 188.954 180 200C180 211.046 188.954 220 200 220C211.046 220 220 211.046 220 200C220 188.954 211.046 180 200 180ZM200 213.333C192.636 213.333 186.667 207.364 186.667 200C186.667 192.636 192.636 186.667 200 186.667C207.364 186.667 213.333 192.636 213.333 200C213.333 207.364 207.364 213.333 200 213.333Z" fill="#9CA3AF"/>
  <path d="M206.667 160H193.333C190.756 160 188.667 162.09 188.667 164.667V170H195.333V166.667H204.667V170H211.333V164.667C211.333 162.09 209.244 160 206.667 160Z" fill="#9CA3AF"/>
  <path d="M170 188.667H166.667V204.667H170V188.667Z" fill="#9CA3AF"/>
  <path d="M233.333 188.667H230V204.667H233.333V188.667Z" fill="#9CA3AF"/>
  <path d="M195.333 230H204.667V233.333H195.333V230Z" fill="#9CA3AF"/>
  <text x="200" y="280" text-anchor="middle" fill="#9CA3AF" font-family="sans-serif" font-size="24">No Image</text>
</svg>
